<?xml version="1.0" encoding="UTF-8" standalone="no"?>
<!-- Created with Inkscape (http://www.inkscape.org/) -->

<svg
   xmlns:dc="http://purl.org/dc/elements/1.1/"
   xmlns:cc="http://creativecommons.org/ns#"
   xmlns:rdf="http://www.w3.org/1999/02/22-rdf-syntax-ns#"
   xmlns:svg="http://www.w3.org/2000/svg"
   xmlns="http://www.w3.org/2000/svg"
   xmlns:sodipodi="http://sodipodi.sourceforge.net/DTD/sodipodi-0.dtd"
   xmlns:inkscape="http://www.inkscape.org/namespaces/inkscape"
   width="291.42859"
   height="297.85715"
   id="svg2"
   version="1.1"
   inkscape:version="0.48.4 r9939"
   sodipodi:docname="circles.svg">
  <defs
     id="defs4" />
  <sodipodi:namedview
     id="base"
     pagecolor="#ffffff"
     bordercolor="#666666"
     borderopacity="1.0"
     inkscape:pageopacity="0.0"
     inkscape:pageshadow="2"
     inkscape:zoom="1.4"
     inkscape:cx="125.75877"
     inkscape:cy="153.3667"
     inkscape:document-units="px"
     inkscape:current-layer="layer1"
     showgrid="false"
     inkscape:snap-bbox="true"
     inkscape:snap-bbox-midpoints="true"
     inkscape:snap-bbox-edge-midpoints="true"
     inkscape:object-nodes="true"
     showguides="true"
     inkscape:guide-bbox="true"
     inkscape:window-width="1297"
     inkscape:window-height="748"
     inkscape:window-x="-2"
     inkscape:window-y="-3"
     inkscape:window-maximized="1"
     fit-margin-top="0"
     fit-margin-left="0"
     fit-margin-right="0"
     fit-margin-bottom="0" />
  <metadata
     id="metadata7">
    <rdf:RDF>
      <cc:Work
         rdf:about="">
        <dc:format>image/svg+xml</dc:format>
        <dc:type
           rdf:resource="http://purl.org/dc/dcmitype/StillImage" />
        <dc:title></dc:title>
      </cc:Work>
    </rdf:RDF>
  </metadata>
  <g
     inkscape:label="Layer 1"
     inkscape:groupmode="layer"
     id="layer1"
     transform="translate(82.768821,-227.43577)">
    <path
       sodipodi:type="arc"
       style="fill:#00ffff;fill-opacity:1;stroke:none"
       id="path2985-6"
       sodipodi:cx="145.71428"
       sodipodi:cy="315.21933"
       sodipodi:rx="97.14286"
       sodipodi:ry="97.14286"
       d="m 242.85714,315.21933 c 0,53.65052 -43.49234,97.14286 -97.14286,97.14286 -53.650521,0 -97.142861,-43.49234 -97.142861,-97.14286 0,-53.65052 43.49234,-97.14286 97.142861,-97.14286 53.65052,0 97.14286,43.49234 97.14286,97.14286 z"
       transform="translate(400,51.785707)" />
    <path
       transform="translate(497.14286,51.785707)"
       d="m 242.85714,315.21933 c 0,53.65052 -43.49234,97.14286 -97.14286,97.14286 -53.650521,0 -97.142861,-43.49234 -97.142861,-97.14286 0,-53.65052 43.49234,-97.14286 97.142861,-97.14286 53.65052,0 97.14286,43.49234 97.14286,97.14286 z"
       sodipodi:ry="97.14286"
       sodipodi:rx="97.14286"
       sodipodi:cy="315.21933"
       sodipodi:cx="145.71428"
       id="path2987-6"
       style="fill:#ff00ff;fill-opacity:1;stroke:none"
       sodipodi:type="arc" />
    <path
       sodipodi:type="arc"
       style="fill:#ffff00;fill-opacity:1;stroke:none"
       id="path2989-6"
       sodipodi:cx="145.71428"
       sodipodi:cy="315.21933"
       sodipodi:rx="97.14286"
       sodipodi:ry="97.14286"
       d="m 242.85714,315.21933 c 0,53.65052 -43.49234,97.14286 -97.14286,97.14286 -53.650521,0 -97.142861,-43.49234 -97.142861,-97.14286 0,-53.65052 43.49234,-97.14286 97.142861,-97.14286 53.65052,0 97.14286,43.49234 97.14286,97.14286 z"
       transform="matrix(1,0,0,1.0330882,448.07143,141.71282)" />
    <path
       style="fill:#0000ff;fill-opacity:1;stroke:none"
       d="M 594.28125,282.84375 C 565.24554,299.6403 545.71875,331.0437 545.71875,367 c 0,35.95565 19.52766,67.35948 48.5625,84.15625 29.03622,-16.79642 48.5625,-48.19957 48.5625,-84.15625 0,-35.9573 -19.52546,-67.36004 -48.5625,-84.15625 z"
       id="path3029"
       inkscape:connector-curvature="0" />
    <path
       style="fill:#000000;fill-opacity:1;stroke:none"
       d="m 593.78125,367 c -17.14005,0 -33.23922,4.60731 -47.21875,12.65625 3.97945,30.581 22.14945,56.70806 47.71875,71.5 25.41528,-14.70184 43.52989,-40.59567 47.65625,-70.9375 C 627.73958,371.82653 611.3108,367 593.78125,367 z"
       id="path3034"
       inkscape:connector-curvature="0" />
    <path
       style="fill:#ff0000;fill-opacity:1;stroke:none"
       d="m 641.96875,380.21875 c -4.12588,30.34375 -22.26984,56.23429 -47.6875,70.9375 14.2849,8.26492 30.87078,13 48.5625,13 17.02833,0 33.05288,-4.3656 46.96875,-12.0625 -10e-4,-0.0101 10e-4,-0.0211 0,-0.0312 -4.56216,-30.78246 -22.67743,-56.95599 -47.84375,-71.84375 z"
       id="path3046"
       inkscape:connector-curvature="0" />
    <path
       style="fill:#00ff00;fill-opacity:1;stroke:none"
       d="m 546.53125,379.6875 c -25.49695,14.70516 -43.93956,40.91624 -48.6875,71.84375 14.13349,8.02392 30.46139,12.625 47.875,12.625 17.69231,0 34.27532,-4.73508 48.5625,-13 -25.56388,-14.78881 -43.76412,-40.8981 -47.75,-71.46875 z"
       id="path3061"
       inkscape:connector-curvature="0" />
    <g
       id="g3083"
       transform="matrix(-1,0,0,-1,125.89094,752.7287)">
      <path
         sodipodi:type="arc"
         style="fill:#00ffff;fill-opacity:1;stroke:none"
         id="path3069"
         sodipodi:cx="145.71428"
         sodipodi:cy="315.21933"
         sodipodi:rx="97.14286"
         sodipodi:ry="97.14286"
         d="m 242.85714,315.21933 c 0,53.65052 -43.49234,97.14286 -97.14286,97.14286 -53.650521,0 -97.142861,-43.49234 -97.142861,-97.14286 0,-53.65052 43.49234,-97.14286 97.142861,-97.14286 53.65052,0 97.14286,43.49234 97.14286,97.14286 z"
         transform="translate(-131.34024,9.3593001)" />
      <path
         transform="translate(-34.197379,9.3593001)"
         d="m 242.85714,315.21933 c 0,53.65052 -43.49234,97.14286 -97.14286,97.14286 -53.650521,0 -97.142861,-43.49234 -97.142861,-97.14286 0,-53.65052 43.49234,-97.14286 97.142861,-97.14286 53.65052,0 97.14286,43.49234 97.14286,97.14286 z"
         sodipodi:ry="97.14286"
         sodipodi:rx="97.14286"
         sodipodi:cy="315.21933"
         sodipodi:cx="145.71428"
         id="path3071"
         style="fill:#ff00ff;fill-opacity:1;stroke:none"
         sodipodi:type="arc" />
      <path
         sodipodi:type="arc"
         style="fill:#ffff00;fill-opacity:1;stroke:none"
         id="path3073"
         sodipodi:cx="145.71428"
         sodipodi:cy="315.21933"
         sodipodi:rx="97.14286"
         sodipodi:ry="97.14286"
         d="m 242.85714,315.21933 c 0,53.65052 -43.49234,97.14286 -97.14286,97.14286 -53.650521,0 -97.142861,-43.49234 -97.142861,-97.14286 0,-53.65052 43.49234,-97.14286 97.142861,-97.14286 53.65052,0 97.14286,43.49234 97.14286,97.14286 z"
         transform="matrix(1,0,0,1.0330882,-83.268809,99.286413)" />
      <path
         inkscape:connector-curvature="0"
         style="fill:#0000ff;fill-opacity:1;stroke:none"
         d="m 62.941011,240.41734 c -29.03571,16.79655 -48.5625,48.19995 -48.5625,84.15625 0,35.95565 19.52766,67.35948 48.5625,84.15625 29.03622,-16.79642 48.562499,-48.19957 48.562499,-84.15625 0,-35.9573 -19.525459,-67.36004 -48.562499,-84.15625 z"
         id="path3075" />
      <path
         inkscape:connector-curvature="0"
         style="fill:#000000;fill-opacity:1;stroke:none"
         d="m 62.441011,324.57359 c -17.14005,0 -33.23922,4.60731 -47.21875,12.65625 3.97945,30.581 22.14945,56.70806 47.71875,71.5 C 88.356291,394.028 106.4709,368.13417 110.59726,337.79234 96.399341,329.40012 79.970561,324.57359 62.441011,324.57359 z"
         id="path3077" />
      <path
         inkscape:connector-curvature="0"
         style="fill:#ff0000;fill-opacity:1;stroke:none"
         d="m 110.62851,337.79234 c -4.12588,30.34375 -22.269839,56.23429 -47.687499,70.9375 14.2849,8.26492 30.87078,13 48.562499,13 17.02833,0 33.05288,-4.3656 46.96875,-12.0625 -0.001,-0.0101 0.001,-0.0211 0,-0.0312 -4.56216,-30.78246 -22.67743,-56.95599 -47.84375,-71.84375 z"
         id="path3079" />
      <path
         inkscape:connector-curvature="0"
         style="fill:#00ff00;fill-opacity:1;stroke:none"
         d="m 15.191011,337.26109 c -25.49695,14.70516 -43.93956,40.91624 -48.6875,71.84375 14.13349,8.02392 30.4613904,12.625 47.875,12.625 17.69231,0 34.27532,-4.73508 48.5625,-13 -25.56388,-14.78881 -43.76412,-40.8981 -47.75,-71.46875 z"
         id="path3081" />
    </g>
  </g>
</svg>
